<svg id="Group_1" data-name="Group 1" xmlns="http://www.w3.org/2000/svg" width="719.77" height="687.25" viewBox="0 0 719.77 687.25">
  <path id="Path_1" data-name="Path 1" d="M908.885,288.962V250.375h-6v38.587a8,8,0,1,0,6,0Z" transform="translate(-240.115 -106.375)" fill="#e6e6e6"/>
  <path id="Path_2" data-name="Path 2" d="M922.885,678.375h-41v-498h-16v498h-41a37,37,0,0,0-37,37h172a37,37,0,0,0-37-37Z" transform="translate(-240.115 -106.375)" fill="#e6e6e6"/>
  <path id="Path_3" data-name="Path 3" d="M787.968,254.375H959.8l-10.508-131.34a18.2,18.2,0,0,0-18.046-16.66H816.521a18.2,18.2,0,0,0-18.046,16.66Z" transform="translate(-240.115 -106.375)" fill="#6c63ff"/>
  <path id="Path_4" data-name="Path 4" d="M301.213,563.911H825.692V510.364c0-144.6-117.641-262.239-262.239-262.239s-262.24,117.641-262.24,262.239Z" transform="translate(-240.115 -106.375)" fill="#3f3d56"/>
  <path id="Path_5" data-name="Path 5" d="M301.213,563.911H825.692V510.364c0-144.6-117.641-262.239-262.239-262.239s-262.24,117.641-262.24,262.239Z" transform="translate(-240.115 -106.375)" opacity="0.2"/>
  <path id="Path_6" data-name="Path 6" d="M369.188,582.446H772.82a81.1,81.1,0,0,0-80.994-79.633H450.181A81.1,81.1,0,0,0,369.188,582.446Z" transform="translate(-240.115 -106.375)" fill="#6c63ff"/>
  <circle id="Ellipse_1" data-name="Ellipse 1" cx="81.006" cy="81.006" r="81.006" transform="translate(0 305.821)" fill="#3f3d56"/>
  <circle id="Ellipse_2" data-name="Ellipse 2" cx="81.006" cy="81.006" r="81.006" transform="translate(491.527 305.821)" fill="#3f3d56"/>
  <path id="Path_7" data-name="Path 7" d="M751.551,534.392v30.2H377.413v-30.2H293.662V681.614a34.011,34.011,0,0,0,34.011,34.011H801.291A34.011,34.011,0,0,0,835.3,681.614V534.392Z" transform="translate(-240.115 -106.375)" fill="#3f3d56"/>
  <circle id="Ellipse_3" data-name="Ellipse 3" cx="16.476" cy="16.476" r="16.476" transform="translate(64.53 370.351)" opacity="0.2"/>
  <circle id="Ellipse_4" data-name="Ellipse 4" cx="16.476" cy="16.476" r="16.476" transform="translate(556.057 370.351)" opacity="0.2"/>
  <path id="Path_8" data-name="Path 8" d="M593.293,238.871s1.62,30.775,12.958,37.254,0,50.211,0,50.211l-53.451,1.62-3.239-51.831s6.479-21.056,3.239-30.775S593.293,238.871,593.293,238.871Z" transform="translate(-240.115 -106.375)" fill="#ffb8b8"/>
  <path id="Path_9" data-name="Path 9" d="M413.107,560.1l-19.436,22.676,30.775,29.155,16.2-32.394Z" fill="#ffb8b8"/>
  <path id="Path_10" data-name="Path 10" d="M275.431,560.1l19.437,22.676-30.775,29.155-16.2-32.394Z" fill="#ffb8b8"/>
  <path id="Path_11" data-name="Path 11" d="M642.7,451.864s116.62,38.873,110.141,76.127-56.69,168.451-56.69,168.451-27.535,0-48.591-29.155l14.578-32.394s-6.479-17.817,4.859-21.056,17.817-59.93,17.817-59.93-82.606-6.479-100.423-37.253l-32.394-77.746Z" transform="translate(-240.115 -106.375)" fill="#2f2e41"/>
  <path id="Path_12" data-name="Path 12" d="M526.075,451.864s-116.62,38.874-110.141,76.127,56.69,168.451,56.69,168.451,27.535,0,48.591-29.155l-14.578-32.394s6.479-17.817-4.859-21.056-17.817-59.93-17.817-59.93,82.606-6.479,100.423-37.253l32.394-77.746Z" transform="translate(-240.115 -106.375)" fill="#2f2e41"/>
  <path id="Path_13" data-name="Path 13" d="M658.892,706.16s16.2-14.578,17.817-3.239-1.62,56.69-1.62,56.69,16.2,34.014-8.1,34.014-35.634-25.916-32.394-51.831-11.338-35.634-11.338-35.634-17.817-35.634,0-38.873,24.3,4.859,24.3,4.859S641.075,701.3,658.892,706.16Z" transform="translate(-240.115 -106.375)" fill="#2f2e41"/>
  <path id="Path_14" data-name="Path 14" d="M509.878,706.16s-16.2-14.578-17.817-3.239,1.62,56.69,1.62,56.69-16.2,34.014,8.1,34.014,35.634-25.916,32.394-51.831,11.338-35.634,11.338-35.634,17.817-35.634,0-38.873-24.3,4.859-24.3,4.859S527.7,701.3,509.878,706.16Z" transform="translate(-240.115 -106.375)" fill="#2f2e41"/>
  <circle id="Ellipse_5" data-name="Ellipse 5" cx="37.254" cy="37.254" r="37.254" transform="translate(290.819 76.617)" fill="#ffb8b8"/>
  <path id="Path_15" data-name="Path 15" d="M573.857,284.224l-22.676-17.817-55.07,25.915-1.62,147.394s-34.014,16.2-24.3,37.254c0,0,29.155,6.479,42.113,19.437s85.845-4.859,116.62-14.578S667.8,460.773,667.8,460.773l-30.775-43.732L654.843,305.28l-55.065-37.021Z" transform="translate(-240.115 -106.375)" fill="#e6e6e6"/>
  <path id="Path_16" data-name="Path 16" d="M613.478,194.889a32.716,32.716,0,0,1-2.221-3.447c-1.155-2.813.669-6.129-1.035-8.756-1.74-2.682-6.159-3.247-9.165-5.069-4.631-2.807-5.473-8.314-9.811-11.406-3.126-2.228-7.584-2.829-11.762-2.7s-8.3.882-12.478.965a37.622,37.622,0,0,1-16.377-3.349l3.083,6.031a30.776,30.776,0,0,1-9.678-3.923c-1.364,1.691,1.131,4.259-.416,5.845a4.964,4.964,0,0,1-2.184,1.013,52.245,52.245,0,0,0-16.538,8.068,8.309,8.309,0,0,0-2.783,2.938c-.8,1.781-.091,3.748-.152,5.641-.111,3.441-2.737,6.441-4.6,9.541s-2.87,7.118-.106,9.749a25.123,25.123,0,0,1,1.932,1.7c2.77,3.267-2.133,8.052.23,11.519,1.026,1.505,3.129,2.267,4.957,3.156a19.807,19.807,0,0,1,8.474,7.553l-1.421-10.428a1.72,1.72,0,0,1,.283-1.519c.688-.7,2.129-.422,3.079-.886,1.045-.511,1.124-1.683,1.082-2.665l-.32-7.571c-.144-3.4-.184-3.857,2.324-6.6,1.752-1.92,4.507-3.078,7.275-3.93,6.325-1.947,13.128-2.62,19.853-3.278,7.809-.764,16.6-4.553,22.667-.53,4.964,3.293,6.615,8.706,9.007,13.507,2.15,4.315,7.668,17.02,12.262,10.143C611.823,211.876,616.235,199.7,613.478,194.889Z" transform="translate(-240.115 -106.375)" fill="#2f2e41"/>
  <path id="Path_17" data-name="Path 17" d="M574.583,209.438a.58.58,0,0,0-.579.579v15.6a.58.58,0,0,0,.579.579h26.85a.58.58,0,0,0,.579-.579v-15.6a.58.58,0,0,0-.579-.579Z" transform="translate(-240.115 -106.375)" fill="#3f3d56"/>
  <path id="Path_18" data-name="Path 18" d="M577.583,210.813a1.08,1.08,0,0,0-1.079,1.079v11.846a1.08,1.08,0,0,0,1.079,1.079h20.849a1.08,1.08,0,0,0,1.079-1.079V211.892a1.08,1.08,0,0,0-1.079-1.079Z" transform="translate(-240.115 -106.375)" fill="#ff6584"/>
  <rect id="Rectangle_1" data-name="Rectangle 1" width="13.986" height="3.239" transform="translate(320.784 108.201)" fill="#3f3d56"/>
  <path id="Path_19" data-name="Path 19" d="M536.562,209.438a.58.58,0,0,0-.579.579v15.6a.58.58,0,0,0,.579.579h26.85a.58.58,0,0,0,.579-.579v-15.6a.58.58,0,0,0-.579-.579Z" transform="translate(-240.115 -106.375)" fill="#3f3d56"/>
  <path id="Path_20" data-name="Path 20" d="M539.563,210.813a1.08,1.08,0,0,0-1.079,1.079v11.846a1.08,1.08,0,0,0,1.079,1.079h20.848a1.08,1.08,0,0,0,1.079-1.079V211.892a1.08,1.08,0,0,0-1.079-1.079Z" transform="translate(-240.115 -106.375)" fill="#6c63ff"/>
  <path id="Path_21" data-name="Path 21" d="M281.769,297.75h93a14,14,0,0,1,14,14h-121a14,14,0,0,1,14-14Z" fill="#3f3d56"/>
  <path id="Path_22" data-name="Path 22" d="M621.385,403.125a4.963,4.963,0,0,0-1.6.272,2.995,2.995,0,0,0-5.9.728c0,.015,0,.029,0,.044a5.14,5.14,0,0,0-1.1.229,3.011,3.011,0,0,0-1.483-1.911,5.017,5.017,0,0,0,2.164-2.369,4.021,4.021,0,1,0-.082-7.993,4.963,4.963,0,0,0-1.6.272,2.99,2.99,0,1,0-5.749,1.625c-.12.083-.231.177-.343.27a2.839,2.839,0,0,0-2.045-.681,4.98,4.98,0,0,0-9.683,1.551,5.118,5.118,0,0,0-1.18.235,3,3,0,0,0-.172-.493,3.758,3.758,0,0,0,1.272-2.779,4.272,4.272,0,0,0-4.5-4,4.961,4.961,0,0,0-1.6.272,2.99,2.99,0,1,0-5.749,1.625,4.987,4.987,0,0,0-2.137,3.869c-.042.038-.091.068-.131.108a3.559,3.559,0,0,0,.116-.874,4.272,4.272,0,0,0-4.5-4,4.962,4.962,0,0,0-1.6.272,2.99,2.99,0,1,0-5.749,1.625,4.987,4.987,0,0,0,0,8.205,2.727,2.727,0,0,0,0,1.795,5.05,5.05,0,0,0-1.279,1.292,2.981,2.981,0,0,0-5.842.5,4.764,4.764,0,0,0-1.286-.519,5.027,5.027,0,0,0,1.837-2.182,4.021,4.021,0,1,0-.082-7.993,4.963,4.963,0,0,0-1.6.272,2.99,2.99,0,1,0-5.749,1.625c-.064.045-.122.1-.184.145-.156-.015-.308-.042-.468-.042a4.961,4.961,0,0,0-1.6.272c-.019-.075-.05-.145-.074-.219a2.947,2.947,0,0,0-3.062-3.568,5,5,0,1,0-7.851,5.565,5.171,5.171,0,0,0-1.013.221,2.973,2.973,0,0,0-4.762-1.608,4.676,4.676,0,0,0-3.639-1.664,4.961,4.961,0,0,0-1.6.272,2.99,2.99,0,1,0-5.749,1.625,4.989,4.989,0,0,0-2.152,4.1c0,.016,0,.03,0,.045a4.147,4.147,0,0,0-2.1.227,2.99,2.99,0,1,0-5.749,1.625,4.98,4.98,0,0,0,3.936,8.97,4.982,4.982,0,0,0,9.414,1.279,31.17,31.17,0,0,0,10.8-.487,4.982,4.982,0,0,0,9.278.333,4.891,4.891,0,0,0,2.1-.519,4.977,4.977,0,0,0,8.9-.481,4.844,4.844,0,0,1,5.418,3.007,7.8,7.8,0,0,1,5.744-3.179,4.875,4.875,0,0,0,5.415-2.068,5,5,0,0,0,9.423,3.239,4.892,4.892,0,0,0,2.1-.519,4.977,4.977,0,0,0,8.9-.481,4.893,4.893,0,0,0,2.1-.519,4.948,4.948,0,0,0,7.413,1.437,4.979,4.979,0,0,0,8.906,2.065,4.966,4.966,0,0,0,7.584-1.983,4.021,4.021,0,1,0-.082-7.993Zm-89.378-2.064c-.005.024-.009.049-.014.073-.036,0-.071-.009-.108-.009a2.981,2.981,0,0,0-.446.045c.008-.018.02-.034.027-.052a4.985,4.985,0,0,0,.54-.057Zm41.779-1.664c-.015-.058-.04-.112-.057-.169a5.025,5.025,0,0,0,1.738-2.111,4.681,4.681,0,0,0,3.477-1.574,3.007,3.007,0,0,0-.059.582,2.965,2.965,0,0,0,.152.9,5.018,5.018,0,0,0-1.859,2.437,4.907,4.907,0,0,0-3.392-.062Zm29.95.373c0-.061.006-.124,0-.185a3,3,0,0,0,.381-.026,4.956,4.956,0,0,0,.953,1.765c-.094.026-.194.042-.286.074a3.016,3.016,0,0,0-1.05-1.627Z" transform="translate(-240.115 -106.375)" fill="#f9a825"/>
  <path id="Path_23" data-name="Path 23" d="M517.958,409.125a10.441,10.441,0,0,0-10.427,11l6.771,93.115a10.441,10.441,0,0,0,10.427,9.883h87.31a10.441,10.441,0,0,0,10.427-9.884l6.771-93.114a10.441,10.441,0,0,0-10.427-11Z" transform="translate(-240.115 -106.375)" fill="#3f3d56"/>
  <rect id="Rectangle_2" data-name="Rectangle 2" width="6" height="114" transform="translate(282.769 302.75)" fill="#6c63ff"/>
  <rect id="Rectangle_3" data-name="Rectangle 3" width="6" height="114" transform="translate(299.769 302.75)" fill="#6c63ff"/>
  <rect id="Rectangle_4" data-name="Rectangle 4" width="6" height="114" transform="translate(316.769 302.75)" fill="#6c63ff"/>
  <rect id="Rectangle_5" data-name="Rectangle 5" width="6" height="114" transform="translate(333.769 302.75)" fill="#6c63ff"/>
  <rect id="Rectangle_6" data-name="Rectangle 6" width="6" height="114" transform="translate(350.769 302.75)" fill="#6c63ff"/>
  <rect id="Rectangle_7" data-name="Rectangle 7" width="6" height="114" transform="translate(367.769 302.75)" fill="#6c63ff"/>
  <path id="Path_24" data-name="Path 24" d="M607.871,465.632,588.434,476.97s-46.972,38.873-14.578,45.352,40.493-27.535,40.493-27.535l11.338-12.958Z" transform="translate(-240.115 -106.375)" fill="#ffb8b8"/>
  <path id="Path_25" data-name="Path 25" d="M515.547,457.533l19.437,11.338s46.972,38.873,14.578,45.352-40.493-27.535-40.493-27.535L497.73,473.73Z" transform="translate(-240.115 -106.375)" fill="#ffb8b8"/>
  <path id="Path_26" data-name="Path 26" d="M633.786,303.66l21.056,1.62s16.2,14.578,14.578,34.014c0,0,14.578,42.113,11.338,59.93,0,0,3.239,29.155-1.62,40.493s-45.352,55.071-45.352,55.071-37.253-29.155-35.634-30.775l48.591-48.591-24.3-32.394Z" transform="translate(-240.115 -106.375)" fill="#e6e6e6"/>
  <path id="Path_27" data-name="Path 27" d="M496.11,292.322l-.81.81s-36.444,15.387-34.824,34.824c0,0-14.578,42.113-11.338,59.93,0,0-3.239,29.155,1.62,40.493s45.352,55.07,45.352,55.07,37.254-29.155,35.634-30.775l-48.591-48.591,24.3-32.394Z" transform="translate(-240.115 -106.375)" fill="#e6e6e6"/>
</svg>
